<?xml version="1.0" encoding="iso-8859-1"?>
<!-- Generator: Adobe Illustrator 19.0.0, SVG Export Plug-In . SVG Version: 6.00 Build 0)  -->
<svg version="1.1" id="Capa_1" xmlns="http://www.w3.org/2000/svg" xmlns:xlink="http://www.w3.org/1999/xlink" x="0px" y="0px"
	 viewBox="0 0 512 512" style="enable-background:new 0 0 512 512;" xml:space="preserve">
<g>
	<g>
		<g>
			<path d="M256,53.333c-64.688,0-117.333,52.635-117.333,117.333S191.313,288,256,288s117.333-52.635,117.333-117.333
				S320.688,53.333,256,53.333z M256,266.667c-20.212,0-38.927-6.348-54.413-17.056c14.436-7.539,33.596-14.944,54.413-14.944
				c20.809,0,39.961,7.4,54.409,14.948C294.923,260.32,276.21,266.667,256,266.667z M327.229,234.426
				c-17.077-9.841-42.693-21.092-71.229-21.092c-28.549,0-54.178,11.26-71.234,21.086C169.542,217.424,160,195.227,160,170.667
				c0-52.938,43.063-96,96-96s96,43.063,96,96C352,195.23,342.456,217.43,327.229,234.426z"/>
			<path d="M256,96c-29.417,0-53.333,23.927-53.333,53.333s23.917,53.333,53.333,53.333s53.333-23.927,53.333-53.333
				S285.417,96,256,96z M256,181.333c-17.646,0-32-14.354-32-32c0-17.646,14.354-32,32-32s32,14.354,32,32
				C288,166.979,273.646,181.333,256,181.333z"/>
			<path d="M256,0C161.896,0,85.333,76.563,85.333,170.667c0,28.26,7.063,56.271,20.479,81.115L246.667,506.5
				c1.875,3.396,5.458,5.5,9.333,5.5s7.458-2.104,9.333-5.5l140.896-254.813c13.375-24.75,20.438-52.76,20.438-81.021
				C426.667,76.563,350.104,0,256,0z M387.521,241.448L256,479.292l-131.479-237.75c-11.667-21.635-17.854-46.146-17.854-70.875
				c0-82.344,67-149.333,149.333-149.333s149.333,66.99,149.333,149.333C405.333,195.396,399.146,219.906,387.521,241.448z"/>
		</g>
	</g>
</g>
<g>
</g>
<g>
</g>
<g>
</g>
<g>
</g>
<g>
</g>
<g>
</g>
<g>
</g>
<g>
</g>
<g>
</g>
<g>
</g>
<g>
</g>
<g>
</g>
<g>
</g>
<g>
</g>
<g>
</g>
</svg>
