<?xml version="1.0" encoding="utf-8"?>
<!-- Generator: Adobe Illustrator 23.0.3, SVG Export Plug-In . SVG Version: 6.00 Build 0)  -->
<svg version="1.1" id="Logo" xmlns="http://www.w3.org/2000/svg" xmlns:xlink="http://www.w3.org/1999/xlink" x="0px" y="0px"
	 viewBox="0 0 1000 1000" style="enable-background:new 0 0 1000 1000;" xml:space="preserve">
<style type="text/css">
	.st0{fill:none;}
	.st1{fill:#6A468F;}
</style>
<title>Plan de travail 1</title>
<g id="Fusion_Logo">
	<g id="Logo-2">
		<path class="st0" d="M176.6,290l-0.6,0.6c-0.9,0.8-1.8,1.6-2.8,2.4c0,0.3,0,0.5-0.1,0.8c0,0.1,0,0.1,0,0.2c0,0.2-0.1,0.4-0.1,0.6
			c0,0.1,0,0.1,0,0.2c-0.1,0.2-0.1,0.5-0.2,0.7c0,0.1-0.1,0.1-0.1,0.2c-0.1,0.2-0.1,0.4-0.2,0.5s-0.1,0.3-0.1,0.4v0.1l-0.4,1.2v0.1
			l-0.2,0.7c0,0,0,0.1,0,0.2c-0.1,0.2-0.1,0.5-0.2,0.8c2.5-4,5.1-8,7.7-11.9l0,0C178.4,288.4,177.5,289.2,176.6,290z"/>
		<path class="st0" d="M397.5,128.4L397.5,128.4c-0.1-0.3-0.2-0.6-0.2-0.9c-0.3,0.1-0.5,0.2-0.8,0.3c0,0-0.1,0-0.1,0.1
			c-0.2,0.1-0.4,0.2-0.6,0.3l-0.1,0.1c-0.2,0.1-0.3,0.2-0.4,0.4l0,0c-0.1,0.1-0.3,0.3-0.4,0.4l-0.1,0.1c-0.1,0.2-0.2,0.3-0.3,0.5
			v0.1c-0.1,0.2-0.1,0.3-0.2,0.5v0.1c0,0.2-0.1,0.4-0.1,0.6v0.1c0,0.2-0.1,0.4-0.1,0.6c1.5-0.4,3-0.8,4.5-1.3
			C398.1,129.7,397.7,129.1,397.5,128.4z"/>
		<path class="st0" d="M160.1,318.3c-0.1,0.1-0.1,0.2-0.2,0.4c-0.4,0.8-0.9,1.5-1.3,2.3l-0.3,0.5c-0.4,0.8-0.8,1.5-1.2,2.3
			c0,0.1-0.1,0.2-0.2,0.3c-1.4,2.8-2.7,5.5-4,8.4v0.1c-0.4,0.9-0.8,1.9-1.2,2.8l0,0c3.7-7.6,7.6-15,11.7-22.3l0,0
			C162.2,314.8,161.1,316.5,160.1,318.3z"/>
		<path class="st0" d="M422.3,124L422.3,124c-0.1-0.2-0.2-0.3-0.3-0.5l0,0l-0.3-0.5c0,0,0-0.1,0-0.1c-0.1-0.2-0.2-0.3-0.3-0.5
			s-0.1-0.1-0.1-0.2s-0.2-0.3-0.3-0.5l-0.2-0.2l-0.3-0.4l-0.3-0.4c-0.1-0.1-0.1-0.2-0.2-0.3s-0.4-0.5-0.6-0.7
			c-0.3,0.2-0.5,0.3-0.7,0.5l-0.2,0.2l-0.5,0.3l-0.2,0.2l-0.4,0.3l-0.2,0.2l-0.3,0.3l-0.2,0.2l-0.3,0.3l-0.2,0.2l-0.3,0.3l-0.1,0.2
			c-0.1,0.1-0.2,0.2-0.2,0.3l-0.1,0.1l-0.2,0.3l-0.1,0.1l-0.2,0.3l-0.1,0.1l-0.1,0.3v0.1c0,0.1-0.1,0.2-0.1,0.3v0.1l-0.1,0.3v0.1
			c0,0.1,0,0.2,0,0.3l0,0c0,0.1,0,0.2,0,0.3l0,0c0,0.1,0,0.2,0,0.3l0,0c0,0.1,0,0.2,0,0.3l0,0c2.7-0.6,5.3-1.2,8-1.7l0,0
			C422.5,124.4,422.4,124.2,422.3,124z"/>
		<path class="st0" d="M137.6,366.8L137.6,366.8c-0.6,1.1-1.1,2.2-1.8,3.2c-0.1,0.1-0.1,0.2-0.1,0.2c-0.5,0.9-1,1.7-1.6,2.6
			c-0.1,0.2-0.3,0.5-0.4,0.7c-0.6,1-1.2,1.9-1.9,2.8c0,0.9,0,1.8-0.1,2.6c0,0.2,0,0.4,0,0.6c0,0.7-0.1,1.4-0.1,2.1
			c0,0.2,0,0.3-0.1,0.5c-0.1,0.8-0.1,1.6-0.3,2.4v0.2c-0.1,0.9-0.2,1.8-0.4,2.7l0,0c2.6-8.1,5.4-16,8.4-23.9l0,0
			C138.8,364.6,138.2,365.7,137.6,366.8z"/>
		<path class="st0" d="M674.4,157.4l0.2-0.1l0.3-0.1c0.1,0,0.2-0.1,0.3-0.1l0.2-0.1c0.2-0.1,0.3-0.1,0.5-0.2l0.2-0.1l0.3-0.2
			l0.2-0.1c0.1-0.1,0.2-0.1,0.3-0.2c0,0,0.1-0.1,0.1-0.1c0.1-0.1,0.2-0.2,0.3-0.4c-2.1-1.8-2.3-5.4-6.4-7c-0.2,0-0.5,0.1-0.7,0.2
			l-0.2,0.1l-0.4,0.2l-0.2,0.1l-0.3,0.2l-0.1,0.1c-0.2,0.2-0.4,0.5-0.6,0.8v0.1c-0.1,0.1-0.1,0.3-0.2,0.4v0.1
			c-0.2,0.7-0.4,1.4-0.6,2c0,0,0,0.1,0,0.1c0,0.1-0.1,0.2-0.1,0.3l-0.1,0.1c-0.1,0.2-0.3,0.4-0.5,0.6l0,0c2.4,1.1,4.8,2.3,7.2,3.5
			l0,0L674.4,157.4z"/>
		<path class="st1" d="M792.8,211c-1.3,0.7-3.4,1-3.1,2.4c3.2,10.3,6.2,21,16.6,24.4c-4.2,2.7-4.4-3-9,0.6c2.5,7.1,8.3,8.5,13.4,4.5
			c2.8,5,9,2.9,9.7,12.4l3.5-1.3c-10.3-28.6-28.3-61.1-48.9-85.5C762.8,178.9,787.8,198.3,792.8,211z"/>
		<path class="st1" d="M675.2,83.9c31.2,14.1,52.6,48.8,80.3,70.4c1.2,6.8,8.9,10.8,13.7,16.3c-0.4-1.8,2.4-2.1,4.3-2.8
			c-9.2-9.3-14.8-26.2-25.8-31.7c-13.4-23.6-40.3-36.7-59.2-55.4c-11.5-3-19.9-12.7-31.7-15.1C661.5,74.7,671.1,73.5,675.2,83.9z"/>
		<path class="st1" d="M811.5,272.9L811.5,272.9c1,1.3,1.9,2.6,2.9,3.9l0.4,0.5c0.8,1.1,1.7,2.3,2.5,3.5l0.5,0.8
			c0.8,1.1,1.5,2.2,2.3,3.3l0.6,0.9l2.2,3.3l0.6,0.9c0.7,1.1,1.5,2.2,2.2,3.3l0.6,0.9c0.7,1.1,1.5,2.3,2.2,3.4l0.5,0.7
			c0.8,1.2,1.5,2.5,2.3,3.7l0.3,0.5c5.3,8.6,10.2,17.4,14.8,26.5c0.1,0.1,0.1,0.2,0.2,0.3c0.7,1.4,1.4,2.8,2.1,4.2l0.3,0.5l2,4
			l0.3,0.6c0.6,1.3,1.3,2.7,1.9,4c0.1,0.2,0.2,0.4,0.3,0.5c0.7,1.4,1.3,2.8,1.9,4.2c0,0.1,0.1,0.3,0.2,0.4c0.7,1.5,1.3,3,2,4.5v0.1
			c4.7,11,8.9,22.3,12.6,33.8v0.1c0.5,1.6,1,3.2,1.5,4.8c0,0.1,0,0.2,0.1,0.3c0.5,1.6,0.9,3.1,1.4,4.7l0.1,0.3
			c0.5,1.6,0.9,3.1,1.3,4.7l0.1,0.2c0.5,1.6,0.9,3.3,1.3,4.9l0,0c0.5,0,0.9,0.1,1.4,0.1h0.6h0.3h0.2h0.2l0.3-0.1h0.2
			c0.2,0,0.3-0.1,0.5-0.2c-0.3-2.5,0.9-5,3-6.4c-4.8-23.1-16.4-51.2-26.8-78.9c-4.8-12.9-12.7-23.3-17.5-34.6
			c-4.5-10.6-4.2-25.6-16.7-28.4c-3.4,1,4.1,7.2-1.4,7.1c-3.2,0-5.5-2-7.2-5.4c-2.3-5,4.3-5.8-0.3-11.8c-0.4,0.1-0.7,0.2-1.1,0.3
			l-0.3,0.1c-0.3,0.1-0.5,0.2-0.8,0.3l-0.2,0.1c-0.3,0.1-0.6,0.3-0.9,0.4l-0.2,0.1c-0.2,0.1-0.4,0.3-0.6,0.4l-0.2,0.2
			c-0.2,0.2-0.4,0.3-0.6,0.5c0,0-0.1,0.1-0.1,0.1c-0.2,0.2-0.4,0.4-0.6,0.7l-0.2,0.2l-0.4,0.6l-0.2,0.2c-0.2,0.3-0.3,0.5-0.5,0.8
			l-0.1,0.2c-0.1,0.2-0.3,0.4-0.4,0.7c-0.1,0.1-0.1,0.2-0.1,0.3l-0.3,0.6c0,0.1-0.1,0.2-0.1,0.3c-0.1,0.3-0.2,0.6-0.3,0.9l-0.2,0.4
			l-0.2,0.5l-0.2,0.5c0,0.1-0.1,0.2-0.1,0.3c-0.5,1.3-0.9,2.6-1.4,3.9l0,0C805.4,264.9,808.5,268.9,811.5,272.9z"/>
		<path class="st1" d="M864.8,638.1c0.3-0.6,0.5-1.2,0.7-1.8c0-0.1,0.1-0.2,0.1-0.3c0.2-0.6,0.4-1.2,0.6-1.8l0.1-0.3
			c0.2-0.6,0.3-1.3,0.5-1.9l0,0c-0.9,2.7-1.9,5.4-2.9,8.1l0,0c0.3-0.6,0.7-1.3,1-1.9C864.8,638.2,864.8,638.1,864.8,638.1z"/>
		<path class="st1" d="M546.8,119.4c13.2,1.6,26.2,3.8,39.1,6.7h0.1c7.7,1.7,15.3,3.7,22.8,5.9h0.1c19.9,5.8,39.3,13.1,58,22l0,0
			c0.2-0.2,0.3-0.4,0.5-0.6l0.1-0.1c0.1-0.1,0.1-0.2,0.1-0.3c0,0,0-0.1,0-0.1c0.3-0.7,0.4-1.4,0.6-2v-0.1c0-0.1,0.1-0.3,0.2-0.4
			v-0.1c0.1-0.3,0.3-0.5,0.6-0.8l0.1-0.1l0.3-0.2l0.2-0.1l0.4-0.2l0.2-0.1c0.2-0.1,0.4-0.1,0.7-0.2c4.1,1.6,4.4,5.1,6.4,7
			c-0.1,0.1-0.2,0.2-0.3,0.4c0,0-0.1,0.1-0.1,0.1c-0.1,0.1-0.2,0.1-0.3,0.2l-0.2,0.1l-0.3,0.2l-0.2,0.1c-0.2,0.1-0.3,0.2-0.5,0.2
			l-0.2,0.1c-0.1,0-0.2,0.1-0.3,0.1l-0.3,0.1l-0.2,0.1l-0.4,0.1l0,0c2.9,1.4,5.8,2.9,8.6,4.5l0,0c0.2-0.3,0.3-0.7,0.5-1l0.1-0.2
			c0.2-0.3,0.4-0.5,0.6-0.8l0.2-0.2c0.2-0.2,0.4-0.5,0.6-0.7l0.2-0.2c0.3-0.3,0.6-0.6,1-0.9c-2.7-9.4-17.5-17.6-19.5-28.7
			c-7.5,0.5-9.5,3.8-9.6,10c-6.9-4.3-11-15.5-16.9-21.7c-6.8,1-3.3,6.9-8.8,8.4c-3.4-3.1-8.2-3.1-13-3.3c-0.7-9.5-8.1-4.7-11.9-7.6
			c1.2-0.9,2.1-2.2,2.7-3.6c-6.4,6.9-9.1-3.9-12.7-6c-7.5-4.5-22.5-3.8-24.3-16.4c-8.1,5.6-3.5,10.5-7.9,14.7
			c-7.5-6.7-10.7-2.4-22.1-6.7c-0.3,5.1-4,13.6-2,16.6c-1.7-5.2,6.1-0.8,7.1,1.4c-0.1,0.7-0.1,1.4-0.1,2.1v0.1
			C546.7,118.1,546.7,118.8,546.8,119.4L546.8,119.4z"/>
		<path class="st1" d="M474.8,8.8c3.6,1.3,6.6,3.9,9.9,5.7c3-0.1,6.4-1.1,9-0.6c31.4,10.8,62.6,9.6,90.8,25.8
			c23.3-2,38.5,23.8,61.1,16.5c-13.2-8.1-25.6-19.5-40.1-24c-3.8-1.2-8,0.3-12.2-1c-7.6-2.4-14.5-8.3-22.2-10.6
			c-4.2-1.2-9.8-1.9-14.2-2.9c-24.9-5.4-57-14-81.4-10.6C474.3,7.6,472.8,8.9,474.8,8.8z"/>
		<path class="st1" d="M859.8,650.4c-2.5,6.1-5.1,12-7.8,17.9l0,0c0.6-1.2,1.3-2.4,1.9-3.7l0.3-0.5c0.7-1.3,1.3-2.5,2-3.7l0.1-0.2
			c0.6-1.1,1.2-2.2,1.8-3.3l0.5-0.9c0.7-1.2,1.3-2.3,2-3.5c0-0.3-0.1-0.5-0.1-0.7c0,0,0-0.1,0-0.1c0-0.2-0.1-0.3-0.2-0.5
			c0,0,0-0.1,0-0.1c-0.1-0.1-0.1-0.3-0.2-0.4l0,0C860,650.7,859.9,650.6,859.8,650.4L859.8,650.4z"/>
		<path class="st1" d="M843.2,685.9c-1,1.8-2,3.6-3,5.5c-0.1,0.2-0.2,0.3-0.3,0.5c-2,3.7-4.1,7.3-6.3,10.9l-0.3,0.4
			c-1,1.7-2.1,3.5-3.2,5.2l-0.1,0.2c-2.2,3.6-4.5,7.1-6.8,10.6l-0.3,0.5c-2.3,3.5-4.7,6.9-7.1,10.3c-0.1,0.1-0.2,0.2-0.2,0.3
			c-1.2,1.6-2.3,3.2-3.5,4.8l-0.3,0.3c-2.5,3.3-5,6.6-7.6,9.9l-0.4,0.5c-2.6,3.3-5.2,6.5-7.9,9.6l-0.2,0.2c-1.3,1.5-2.6,3-3.9,4.5
			l-0.4,0.5c-2.7,3.1-5.5,6.1-8.3,9.2l-0.5,0.5c-1.3,1.4-2.7,2.8-4.1,4.3l-0.2,0.2c-1.5,1.5-3,3-4.5,4.5l-0.1,0.1
			c-1.4,1.4-2.8,2.8-4.2,4.1l-0.6,0.6c-3,2.8-6,5.6-9,8.4l-0.5,0.5c-1.4,1.3-2.8,2.5-4.2,3.7l-0.5,0.4c-3.1,2.7-6.2,5.3-9.3,7.9
			l-0.7,0.6c-3.2,2.6-6.3,5.1-9.6,7.5l-0.6,0.5c-1.4,1.1-2.9,2.2-4.3,3.2l-0.7,0.5c-3.2,2.4-6.5,4.7-9.9,7l-0.9,0.6
			c-1.5,1-3,2.1-4.6,3.1l-0.4,0.3c-1.7,1.1-3.4,2.2-5.1,3.3l-0.6,0.4c-1.5,0.9-3,1.9-4.5,2.8l-1,0.6c-3.4,2.1-6.9,4.1-10.3,6.1
			l-1,0.6c-1.5,0.8-3,1.7-4.5,2.5l-0.8,0.4c-1.8,1-3.6,1.9-5.3,2.9l-0.6,0.3c-1.6,0.8-3.2,1.6-4.7,2.4l-1.2,0.6
			c-1.7,0.9-3.4,1.7-5.1,2.5l-0.2,0.1c-1.8,0.9-3.6,1.7-5.5,2.6l-1.1,0.5l-4.5,2l-1.1,0.5c-1.8,0.8-3.7,1.6-5.5,2.4l-0.4,0.2
			c-1.7,0.7-3.4,1.4-5.1,2.1l-1.4,0.5l-4.8,1.9l-0.8,0.3c-1.9,0.7-3.7,1.4-5.6,2.1l-1.2,0.4l-4.6,1.6l-1.4,0.5
			c-1.9,0.7-3.8,1.3-5.7,1.9l0,0c-1.9,0.6-3.8,1.2-5.6,1.8l-1.5,0.5c-1.6,0.5-3.1,0.9-4.7,1.4l-1.2,0.3c-1.9,0.5-3.8,1.1-5.8,1.6
			l-1.2,0.3c-1.6,0.4-3.2,0.8-4.7,1.2l-1.6,0.4c-1.8,0.5-3.7,0.9-5.5,1.3l-0.3,0.1c-2,0.5-3.9,0.9-5.9,1.3l-1.5,0.3l-4.7,1l-1.4,0.3
			c-2,0.4-3.9,0.7-5.9,1.1l-1,0.2c-1.7,0.3-3.3,0.6-5,0.8l-1.7,0.3l-5.2,0.8l-0.9,0.1c-2,0.3-4,0.5-6,0.8l-1.6,0.2l-4.7,0.5
			l-1.6,0.2c-2,0.2-4,0.4-6.1,0.6l-0.7,0.1c-1.8,0.2-3.6,0.3-5.5,0.4l-1.8,0.1c-1.7,0.1-3.3,0.2-5,0.3l-1.3,0.1
			c-2,0.1-4.1,0.2-6.1,0.3h-1.5l-4.9,0.1h-1.8c-2.1,0-4.1,0-6.2,0c-214.1,0-387.6-173.6-387.6-387.7c0-2.3,0-4.5,0.1-6.8v-1.6
			c0-2.2,0.1-4.5,0.2-6.7c0-0.1,0-0.2,0-0.4c0.1-2.2,0.2-4.3,0.3-6.5c0-0.5,0-1,0.1-1.5c0.1-2.3,0.3-4.5,0.5-6.7v-0.5
			c0.2-2.1,0.4-4.3,0.6-6.4l0.1-1.2c0.2-2.3,0.5-4.5,0.7-6.8c0-0.1,0-0.3,0-0.4c0.3-2.2,0.5-4.4,0.8-6.5l0.1-0.9
			c0.3-2.3,0.7-4.6,1-6.9c0-0.1,0-0.2,0-0.3c0.4-2.3,0.7-4.5,1.1-6.8c0-0.2,0-0.3,0.1-0.5c0.4-2.4,0.8-4.7,1.3-7v-0.2
			c0.5-2.4,0.9-4.7,1.4-7v-0.1c0.5-2.4,1-4.7,1.6-7.1v-0.1c2.2-9.5,4.8-18.9,7.7-28.1l0,0c0.1-0.9,0.3-1.8,0.4-2.7v-0.2
			c0.1-0.8,0.2-1.6,0.3-2.4c0-0.2,0-0.3,0.1-0.5c0.1-0.7,0.1-1.4,0.1-2.1c0-0.2,0-0.4,0-0.6c0-0.9,0.1-1.8,0.1-2.6
			c0.6-0.9,1.3-1.9,1.9-2.8c0.1-0.2,0.3-0.5,0.4-0.7c0.5-0.9,1.1-1.7,1.6-2.6c0-0.1,0.1-0.2,0.1-0.2c0.6-1,1.2-2.1,1.8-3.1v-0.1
			c0.6-1.1,1.1-2.1,1.7-3.2l0,0c0.9-2.4,1.9-4.8,2.9-7.1v-0.1c1.9-4.7,4-9.3,6.1-13.9l0.1-0.3c1.1-2.3,2.1-4.6,3.2-6.8l0,0
			c0.4-0.9,0.8-1.9,1.2-2.8v-0.1c1.3-2.8,2.6-5.6,4-8.4c0.1-0.1,0.1-0.2,0.2-0.3c0.4-0.8,0.8-1.6,1.2-2.3l0.3-0.5
			c0.4-0.8,0.9-1.5,1.3-2.3c0.1-0.1,0.1-0.2,0.2-0.4c1-1.8,2.1-3.5,3.3-5.3l0,0c1.3-2.2,2.6-4.5,3.9-6.7c0.1-0.1,0.1-0.3,0.2-0.4
			c1.3-2.2,2.6-4.4,4-6.5l0,0c0.1-0.3,0.1-0.5,0.2-0.8c0-0.1,0-0.1,0-0.2l0.2-0.7v-0.1l0.4-1.2v-0.1c0-0.1,0.1-0.3,0.1-0.4
			s0.1-0.4,0.2-0.5c0-0.1,0-0.1,0.1-0.2c0.1-0.2,0.1-0.5,0.2-0.7c0-0.1,0-0.1,0-0.2c0-0.2,0.1-0.4,0.1-0.6c0-0.1,0-0.1,0-0.2
			c0-0.3,0.1-0.5,0.1-0.8c1-0.8,1.9-1.6,2.8-2.4l0.6-0.6c0.9-0.8,1.7-1.6,2.6-2.5l0,0c1.5-2.2,3-4.4,4.5-6.5l0.4-0.6
			c1.5-2.1,2.9-4.1,4.5-6.1l0.6-0.9c1.5-2,3-4,4.5-5.9l0.7-0.9c1.5-2,3.1-3.9,4.6-5.9c0.2-0.2,0.4-0.5,0.6-0.7c1.6-2,3.3-4,5-6
			l0.2-0.2c1.7-2,3.4-4,5.2-6l0.3-0.4c1.7-1.9,3.4-3.8,5.1-5.7c0.2-0.3,0.4-0.5,0.7-0.7c1.7-1.8,3.4-3.6,5.1-5.4l0.8-0.8
			c1.7-1.8,3.5-3.6,5.3-5.3l0.7-0.7c1.8-1.8,3.7-3.6,5.5-5.4l0.3-0.3c1.9-1.8,3.9-3.6,5.9-5.4l0.1-0.1c1.9-1.7,3.9-3.5,5.9-5.2
			l0.6-0.6c1.9-1.7,3.8-3.3,5.8-4.9l0.8-0.7c1.9-1.6,3.9-3.2,5.8-4.8l0.7-0.6c2-1.6,4-3.2,6.1-4.8l0.4-0.3c4.3-3.2,8.6-6.4,13-9.5
			l0.5-0.4c2.1-1.5,4.2-2.9,6.4-4.3l0.8-0.5c2.1-1.4,4.2-2.8,6.4-4.1l0.8-0.5c2.2-1.4,4.4-2.7,6.6-4.1l0.5-0.3
			c4.7-2.8,9.4-5.5,14.1-8.1l0.4-0.2c2.3-1.3,4.6-2.5,6.9-3.7l0.8-0.4c2.3-1.2,4.6-2.3,6.9-3.5l0.8-0.4c2.3-1.1,4.7-2.3,7-3.4
			l0.6-0.3c5-2.3,10-4.5,15.1-6.6l0.2-0.1c2.5-1,5-2,7.5-3l0.7-0.3c2.4-0.9,4.9-1.8,7.4-2.7l0.8-0.3c2.5-0.9,4.9-1.8,7.4-2.6
			l0.7-0.2c2.6-0.9,5.2-1.7,7.8-2.5h0.1c2.7-0.9,5.5-1.7,8.2-2.4l0,0c0-0.2,0.1-0.4,0.1-0.6v-0.1c0-0.2,0.1-0.4,0.1-0.6v-0.1
			c0-0.2,0.1-0.3,0.2-0.5v-0.1c0.1-0.2,0.2-0.3,0.3-0.5l0.1-0.1c0.1-0.2,0.2-0.3,0.4-0.4l0,0c0.1-0.1,0.3-0.3,0.4-0.4l0.1-0.1
			c0.2-0.1,0.4-0.2,0.6-0.3c0,0,0.1,0,0.1-0.1c0.2-0.1,0.5-0.2,0.8-0.3c0.1,0.3,0.1,0.5,0.2,0.8v0.1c0.2,0.7,0.5,1.4,1,1.9l0,0
			c2.6-0.7,5.1-1.3,7.7-2l0.4-0.1c2.6-0.7,5.2-1.3,7.8-1.9l0,0c0-0.1,0-0.2,0-0.3l0,0c0-0.1,0-0.2,0-0.3l0,0c0-0.1,0-0.2,0-0.3l0,0
			c0-0.1,0-0.2,0-0.3v-0.1l0.1-0.3v-0.1c0-0.1,0.1-0.2,0.1-0.3V124l0.1-0.3l0.1-0.1l0.2-0.3l0.1-0.1l0.2-0.3l0.1-0.1
			c0.1-0.1,0.2-0.2,0.2-0.3l0.1-0.2l0.3-0.3l0.2-0.2l0.3-0.3l0.2-0.2l0.3-0.3l0.2-0.2l0.4-0.3l0.2-0.2l0.5-0.3l0.2-0.2
			c0.2-0.2,0.5-0.3,0.7-0.5c0.2,0.3,0.4,0.5,0.6,0.7s0.2,0.2,0.2,0.3l0.3,0.4l0.3,0.4l0.2,0.2c0.1,0.2,0.2,0.3,0.3,0.5
			s0.1,0.1,0.1,0.2s0.2,0.3,0.3,0.5c0,0,0,0.1,0,0.1l0.3,0.5l0,0c0.1,0.2,0.2,0.4,0.3,0.5l0,0c0.1,0.2,0.1,0.3,0.2,0.5l0,0
			c1.6-0.3,3.1-0.6,4.7-0.9h0.1c7.9-1.5,15.8-2.8,23.9-3.8h0.1c1.6-0.2,3.1-0.4,4.7-0.6h0.2c3.2-0.4,6.3-0.7,9.5-1h0.5
			c1.5-0.1,2.9-0.3,4.4-0.4h0.7l4.2-0.3h0.6c1.5-0.1,2.9-0.2,4.3-0.2l1.7-0.1l3.3-0.1l2.1-0.1l2.9-0.1c1.5,0,2.9-0.1,4.4-0.1h0.6
			c1.7,0,3.3,0,5,0c2.1,0,4.3,0,6.4,0.1h1.5c2,0,4.1,0.1,6.1,0.2h0.3c2.3,0.1,4.7,0.2,7,0.3h0.1c2.3,0.1,4.7,0.3,7,0.4l0,0
			c0-0.3,0.1-0.6,0.2-0.9s0.1-0.4,0.1-0.6s0.1-0.6,0.1-0.9l0.1-0.7c0-0.3,0.1-0.6,0.1-0.9s0-0.5,0.1-0.7s0-0.6,0-0.9v-0.7
			c0-0.3,0-0.6,0-0.9s0-0.5,0-0.7s-0.1-0.7-0.1-1s0-0.4-0.1-0.7c0-0.4-0.1-0.8-0.2-1.2c0-0.2-0.1-0.4-0.1-0.6
			c-0.1-0.6-0.3-1.2-0.5-1.8c-7.2-3.3-16.5-5.8-25.1-0.3c-12.9-2.2-19.8-17-29.2-26.5c-5.7,1.6-6.5,1.9-12.5,1.8
			c-0.9-2.9-1.8-5.7-3.7-6.6c-13.4,3-13.3,14.4-26.4,14.7c-11.9,24.6-42.7,23-66.3,35.5c1.9,9.6-5.4,9.6-11.4,16
			c-3.6-2.9-1.4-6.1-4.9-10.1c-2.4-1.7-7.3,1.8-8.7-2.2c-6.9,5.9-13.8,15.9-4.8,16.2c-8.7,6.2-13.1,11.5-22,15.8
			c-3.5-4.5-6.9-1.6-7.3-9.3c-16.4,6.8-27.6,11.6-39.2,19.2c-2.6-1.4-3-7.4-6.4-6.9c-8.9-0.6-7.1,10.3-18.2,11.8
			c-2.7-1.6-5.5-9.1-2.6-11c-8.7-2.4-11,5.3-21,7.5c-1.9,2.8-4.1,5.3-6.5,7.6c-25.3,10.1-32.4,30.3-45.7,45.3
			c-5.3,6-10.4,10.8-13.8,16.8c-24.8,43.8-38,96-59,141.1c-0.7,14.9-8.9,26.3-13.7,39.2c-3.7,0.5-7.4-5.9-9.8-1.8
			c-7.2,9,9.6,30.3-5.2,33.5c-12.1,2.6-14.5-18.9-20.3-31c-3.3-6.9-9.4-11.5-11.8-18.3c-2.6-9.6-0.4-18.4-7.9-20.8
			c-8.9,9.9-6.6,26.4-4.7,38.6c5.1,33,19.6,69.4,28.4,102c0.8,3,0,7.3,1,10.2c2.2,6.5,7.8,11,10.2,17.5c7.8,21.6-8,48.3,12,67
			c-11,34.6,16.8,72.1,36.3,105.8c14.2,24.6,34.9,44.9,46.9,65.1c3,2.5,7.7,1.5,10.7,4.1c32.7,47.8,74.5,76.4,120.1,97.1
			c7-4.2,10.3-4.1,15.1-9.3c1.8,1.7,4.3,1.8,4.8,6.2c5.2-2.4,9.7-6.2,12.2,0.9c-6.4,1.8-12.9,3.2-19.5,4.3c4,2.8,4.8,1.7,5.7,8.5
			c68.7,36.2,160.8,46.2,247.3,25.5c38.3-4.9,74.5-20.2,107.9-37.1c13.9-7,23.1-21.5,39.9-24.8c26-23.6,56.5-45,74.2-72.6
			c3.2-1.3,3,1.1,4.7-1.7c10.5-17.3,27.3-31.7,34.6-50.6c0.8-0.9,1.5-1.9,2.2-2.8l0.7-0.9l1.5-2l0.7-1c0.5-0.7,0.9-1.3,1.4-2l0.7-1
			c0.6-0.8,1.1-1.7,1.7-2.5l0.3-0.4l1.9-3l0.5-0.8c0.5-0.7,0.9-1.4,1.3-2.2c0.2-0.3,0.4-0.7,0.6-1l1.2-2l0.6-1
			c0.5-0.8,0.9-1.6,1.4-2.4l0.4-0.7c0.6-1,1.1-2,1.7-3.1c0.1-0.3,0.3-0.5,0.4-0.7l1.3-2.4c0.2-0.3,0.4-0.7,0.6-1l1.1-2.1l0.5-1
			l1.2-2.4c0.1-0.2,0.3-0.5,0.4-0.7c0.5-1,1.1-2.1,1.6-3.2l0.2-0.3l1.4-2.8l0.5-0.9c0.4-0.8,0.8-1.6,1.2-2.4l0.4-0.8
			C842.2,687.9,842.7,686.9,843.2,685.9L843.2,685.9z"/>
		<path class="st1" d="M459.9,11.5c3.9-3.5,8.8-0.5,8.5-5.7c-11.3,4.1-25.2-2.5-40,2.4C435.3,17,450.9,7.4,459.9,11.5z"/>
		<path class="st1" d="M433,528c-21.8-10.1-48.9-26.9-75.5-53.5v341.2l420.7-313.2L756,486C735.1,499.2,577.8,595.1,433,528z"/>
		<path class="st1" d="M725.7,463.5l0.5,0.3L357.5,189.3v248.9c63.4,30,132.4,46.5,202.5,48.3C616.1,488.1,672.1,480.3,725.7,463.5z
			"/>
	</g>
</g>
</svg>
