<?xml version="1.0"?>
<svg xmlns:rdf="http://www.w3.org/1999/02/22-rdf-syntax-ns#" xmlns="http://www.w3.org/2000/svg" xmlns:cc="http://creativecommons.org/ns#" xmlns:dc="http://purl.org/dc/elements/1.1/" xmlns:svg="http://www.w3.org/2000/svg" id="svg2" viewBox="0 0 1497 2025.3" version="1.1">
  <g id="layer1" transform="translate(519.41 570)">
    <g id="g3812">
      <path id="path3694" d="m-276.72-224.47 884.89-4.0406 242.44 642.46-226.27 476.79-961.67 20.203-56.569-153.54-4.0406-185.87-40.406-323.25 161.62-472.75z" fill="#b3917c"/>
      <path id="path2848" fill="#b3917c" d="m-396.71 693.08c-26.423-69.557-80.903-123.02-110.48-190.5-11.643-26.56-20.57-70.333 0.48206-88.783 25.62-22.453 57.878 16.568 64.295 47.301 24.704 56.185 48.851 112.53 53.921 174.41 8.28 20.656-1.5798 38.094-8.2163 57.578z"/>
      <path id="path2834" fill="#b1a9a0" d="m149.28-567.62c-62.092 6.0052-126.29 11.072-181.28 46.021-45.139 28.686-97.288 46.806-131.12 90.248-36.51 39.584-85.486 70.92-112.53 116.68-33.022 55.879-56.359 128.41-94.454 170.25-38.095 41.839-50.513 81.186-64.268 125.41-28.897 92.917-35.145 192.1-36.622 288.79-1.1897 77.882-3.0606 160.52 38.875 230.34 21.785 44.501 34.633 94.608 40.573 143.2-26.934 166.93-0.62461 329.02 78.06 477.51 37.629 71.009 93.822 129.77 147.65 189.85 197.72 197.49 538.6 203.35 781.88-48.862 52.963-61.824 90.94-133.39 121.11-207.31 30.259-74.143 51.997-157.09 31.342-238.72-14.079-55.644-7.4361-115.27-3.0434-171.94 13.57-44.331 15.696-94.328 52.297-127.26 31.876-51.085 92.025-78.513 111.94-137.57 9.1484-78.491 14.824-161.82 2.6275-241.35-8.87-66.459-12.61-133.4-45.07-194.26-40.41-75.76-84.32-150.44-133.5-220.73-36.75-52.53-78.52-100.21-127.88-142.01-41.461-35.117-85.793-63.012-133.98-87.44-42.998-21.798-86.432-37.255-134.14-46.093-69.673-12.907-138.66-21.405-208.47-14.652zm-69.28 386.4c43.673-4.957 89.375-2.8931 130.45 19.521 28.368 15.482 57.808 27.494 92.025 17.099 36.401-11.058 75.12-20.837 112.17-1.1405 40.619 21.595 84.117 46.509 113.2 80.958 43.113 51.06 76.959 114.7 92.018 183.11 10.596 48.14 29.317 93.085 60.694 131.85 45.862 56.661 75.637 131.03 78.726 198.6 3.1442 68.788-26.376 145.3-55.402 210.91-16.349 36.95-41.052 87.981-80.459 91.967-34.55 3.4947-57.38 11.509-79.582 37.257-18.522 21.481-19.557 66.176-59.567 38.115-72.14-50.64-156.45-105.12-241.44-112.58-52.007-4.565-100.62 50.662-153.68 57.333-62.091 7.8084-73.329-35.836-102.21-38.104-41.198-3.2344-124.67 22.575-184.37 67.266-23.256 17.41-44.437 58.971-69.021 53.505-29.807-6.6271-41.405-70.533-74.141-77.924-37.687-8.5088-38.06-45.956-30.64-73.732 19.6-73.373-19.792-143.61-16.486-217.46 1.9328-43.182-0.35611-85.232 17.091-125.96 28.414-66.327 42.149-140.2 60.614-206.7 9.2419-33.285-12.012-70.779 1.5667-106.25 12.133-31.693 47.272-51.733 59.432-80.941 12.159-29.208 16.08-65.015 51.053-68.805 50.284-5.4495 102.6-7.7668 147.02-36.882 39.25-25.72 85.648-35.92 130.94-41.06z"/>
      <path id="path3674" fill="#ded6c8" d="m-140.71 898.79c17.953 17.709 35.484 35.97 53.698 53.336l60.587 34.521c38.474-1.5357 76.988-2.4302 115.31-6.3952 23.587-2.225 47.363-3.4288 70.831-6.2899 33.885-10.099 68.133-19.44 101.79-30.013l72.778-50.874c-71.974 2.4718-144.14 2.6534-215.96 6.582-19.768 1.0814-39.162 9.6239-58.83 8.9657-51.402-1.7201-102.9-8.4047-154.39-11.664-15.456-0.97827-30.53 0.18348-45.823 1.8305z"/>
      <path id="path2830" d="m-92.5 900.58c28.385 31.047 58.22 63.049 102.2 68.599 60.592 14.037 125 1.1927 185.86-6.1935 57.898-15.08 117.12-35.46 164.55-70.437 85.431-22.418-8.0081 66.447-36.033 85.355-59.249 25.698-117.61 54.807-183.53 54.568-49.897 7.4114-99.708 11.436-149.08-1.6256-36.618 3.2344-56.782-22.898-76.759-49.367-23.891-19.764-29.15-57.379-25.931-84.377 6.1673-12.61 11.144 0.20847 18.718 3.4787z" fill="none"/>
      <path id="path2844" fill="#9f9285" d="m156.43 343.08c81.418 12.186 180.62-30.842 266.59-2.4578 53.09 17.527 123.14 61.544 159.83 50.315 22.715-6.9519-15.521-59.268-41.238-74.678-43.752-26.216-94.299-54.579-148.89-51.552-81.346 4.5123-168.16 17.937-236.31 53.372-6.9948 3.6374-7.6091 23.861 0 25z"/>
      <path id="path2846" fill="#9f9285" d="m-317.14 430.93c17.211-22.586 26.406-77.255 63.094-95.109 31.939-15.543 75.578-3.6555 112.33-7.7479 61.283-6.8233 117.84 34.693 173.86 38.571 44.766 3.11-3.62-43.06-24.512-58.82-30.68-23.15-64.585-31.07-101.73-33.72-43.733-3.1251-90.834-18.155-132.56-7.1151-33.582 8.8855-65.237 23.595-83.834 56.24-14.556 25.551-23.361 58.498-25.938 84.854-0.87399 8.9404 14.891 28.624 19.286 22.857z"/>
      <path id="path2850" fill="#b3917c" d="m758.29 885.93c27.673 29.252 52.059-18.759 60.874-43.199 34.995-97.033 93.066-183.08 135.63-276.83 22.066-48.605 39.305-118.24-3.6431-154.97-27.517-23.535-62.024-0.65603-84.528 23.423-68.21 49.21-104.3 120.03-122.83 200.27-14.222 51.121 1.3515 106.36-0.0318 159.26 3.7496 30.786 9.865 61.353 14.53 92.044z"/>
      <path id="path2852" d="m255.71 591.65c30.853 21.768 61.933 43.356 71.429 82.143 15.813 37.879-38.795 32.869-61.805 29.332 30.161-35.119 1.5204-73.902-9.6238-111.48z" fill="#a47b62"/>
      <path id="path2854" fill="#ac8770" d="m-198.34 799.85c-14.018 14.857-58.206 72.643-43.348 21.523 12.201-41.978 8.9685-95.146 34.923-128.03 31.212-39.54 100.54-100.71 132.05-82.418 27.058 15.709-90.664 148.86-123.63 188.92z"/>
      <path id="path3629" fill="#a59a90" d="m67.143-240.49c22.535-41.453 68.057-104.29 116.34-136.03 30.745-20.208 67.456-47.728 103.85-45.47 55.016 3.4138 117.04 1.9863 165.41 24.504 36.141 16.827 77.488 41.457 97.521 76.217 26.353 45.725 50.615 93.71 53.368 149.09 2.7148 54.609 24.562 157.51 0.65321 163.11-26.44 6.2034-76.94-99.19-127.67-130.5-42.324-26.124-86.967-58.653-140.61-52.353-78.972 9.2749-157.17-10.743-233.15-28.571-13.194-3.0961-40.888-10.483-35.714-20z"/>
      <path id="path3631" fill="#9b8e83" d="m675.71-0.49496c2.5723-11.035 84.168 84.814 99.893 144.06 15.038 56.655 29.993 116.82 56.882 167.85 17.106 32.461 63.818 3.2859 86.082 18.098 27.932 18.583-0.95144 67.331-20 92.857-31.46 42.15-92.95 128.52-117.14 111.41-37.79-26.73-30.7-166.91-61.85-244.93-17.29-43.31-67.41-108.53-56.72-127.93 8.9765-16.298 64.512 35.53 92.857 60-25.136-74.382-83.448-206.64-80-221.43z"/>
      <path id="path3633" fill="#9b8e83" d="m600-326.21c13.844 0.11953 109.35 50.567 145.68 92.872 44.529 51.854 95.001 116.26 98.248 183.65 0.39616 8.2221-33.568-25.333-63.492-51.808-29.923-26.476-94.172-68.165-116.41-123.38-21.18-33.74-73.62-101.41-64.03-101.33z"/>
      <path id="path3635" d="m152.86-407.64c-40.565 21.314-77.509 53.956-126.05 50.319-36.367 3.5023-73.83 13.755-105.77-10.004 6.823-19.41 40.664-47.189 60.307-67.212 50.565-41.856 126.15-17.916 168.82 24.735l2.7027 2.1622z" fill="#9b8e83"/>
      <path id="path3637" d="m-350-4.7807c-13.983 49.427-39.497 97.233-29.917 149.97-6.288 64.386 38.187 129.32 4.7583 191-18.877 45.464-21.412 95.546-37.699 141.89-21.64-48.396-38.526-97.998-40.223-151.45-6.0695-65.398-2.0399-131.46-4.063-197.12 28.327-46.153 53.051-95.321 98.844-126.86l8.2989-7.4253z" fill="none"/>
      <path id="path3639" fill="#a59a90" d="m-188.57-351.92c-0.52961 33.712-6.089 70.121 21.461 97.752 24.636 24.709 85.831 53.729 78.539 66.534-10.359 18.19-101.18 10.148-141.01 45.294-36.615 32.309-86.693 99.086-107.56 98.991-15.615-0.07072-10.067-71.408 10.318-105.82 37.65-63.557 54.262-140.93 109.37-192.91 14.662-13.832 29.715-62.464 28.888-9.8404z"/>
      <path id="path3659" fill="#9f9288" d="m542.86 879.51s-18.048 52.766-28.571 78.571c-14.806 36.31-38.076 69.361-48.571 107.14 0 0-14.947 51.254-21.429 77.143-12.205 48.751-64.548 186.15-32.857 147.14l55.714-68.571c33.326-41.016 47.328-94.739 65.714-144.29 13.631-36.733 24.145-74.657 32.857-112.86 5.7965-25.416 20.384-52.184 12.857-77.143-2.821-9.3545-10.238-21.028-20-21.429-7.0731-0.29035-13.295 7.6328-15.714 14.286z"/>
      <path id="path3661" fill="#897b6f" d="m-324.29 836.65c14.64 22.461 25.496 48.954 27.143 75.714 1.199 19.487 6.6361 56.051-12.857 57.143-12.482 0.69933-30.764-27.696-40-45.714-9.5894-18.708-14.286-61.429-14.286-61.429-4.0832-17.558-5.7975-47.546 11.429-52.857 12.553-3.8701 21.399 16.138 28.571 27.143z"/>
      <path id="path3663" fill="#a59a90" d="m-171.43 885.22c10.6 15.063 11.429 38.095 17.143 57.143-2.0226 18.89-3.2076 46.229-7.0975 56.609s-2.6062 14.081-7.0507 19.287c-5.2908 6.1974-11.087 8.1529-21.359 11.891-9.4559 3.4411-21.314-15.222-24.58-26.928-5.2152-18.693 14.72-38.742 11.32-57.108-3.6922-19.947-19.963-39.426-21.233-58.037-0.56989-8.3534 7.5735-27.241 15.714-22.857 12.381 6.6667 29.648 9.3488 37.143 20z"/>
      <path id="path3665" fill="#a59a90" d="m358.57 809.51c18.04 0.63297 38.644 8.9358 55.714 17.143 7.6913 3.6977 17.824 10.603 18.571 18.571 1.948 20.762-2.6888 46.535-10.287 67.686-9.462 26.339-28.43 66.865-39.713 75.171-5.2882 3.8933-11.418-26.016-10-38.571 1.9158-16.968 22.654-34.995 20-50-2.6429-14.941-25.465-25.276-35.335-40.325-7.8833-12.02-24.873-25.544-24.665-35.389 0.14176-6.7135 16.611-14.605 25.714-14.286z"/>
      <path id="path3667" fill="#9b8e83" d="m667.14 839.51c-9.1918 40.315-4.9322 83.352-17.143 122.86 0 0-33.087 72.806-24.286 78.571 13.625 8.9249 31.599-15.28 38.571-30 0 0 28.022-53.308 38.571-81.429 7.9953-21.312 18.572-65.714 18.572-65.714l1.4285-100c0.25313-17.72 11.758-49.896-5.7142-52.857-20.791-3.5235-20.716 37.059-27.143 57.143 0 0-17.3 47.055-22.857 71.429z"/>
      <path id="path3669" fill="#aa6249" d="m-117.14 902.36c23.493 14.45 38.171 42.343 65.972 52.127 25.282 8.8966 48.284 25.202 76.412 23.481 30.773-1.8838 63.184 7.8292 92.886 0.58159 60.327-14.721 120.54-33.813 176.26-62.923 23.229-12.137 47.216-26.203 74.366-25.33 33.582-8.3836 0.08 17.318-10.026 30.375-28.921 31.424-53.616 72.518-90.866 90.26-47.369 22.562-105.59 32.275-159.49 34.056-108.36 3.5803-221.39 9.211-259.09-109.06-5.569-20.321 6.1646-50.43 33.571-33.571z"/>
      <path id="path3677" fill="#d3c6bc" d="m-244.29 448.98c21.686-15.951 40.567-35.481 67.523-44.973 17.382-6.1211 34.815-13.948 53.808-9.5538 15.698 3.6319 35.182 0.26594 47.955 7.7277 15.088 8.8136 42.451 26.743 43.182 41.024-35.627 9.353-70.588 22.18-108.54 22.145-26.568-0.0241-53.408 1.1716-78.289-8.494-8.2879-3.2196-17.095-5.2497-25.641-7.8752z"/>
      <path id="path3684" fill="#382007" d="m-176.43 404.14 6.125 34.758 9.9464 16.429 16.786 9.9124 22.678-0.81249 27.5-4.875 7.5-12.025 6.7858-20.637 3.75-16.25 1.6071-7.3124-0.3571-0.4875-11.786-4.225-12.857-1.1375-16.25-1.625-12.321-2.1125-13.572-0.1625-10 2.4375-15.536 4.225-10 3.9z"/>
      <path id="path3686" fill="#d3c6bc" d="m265 431.11s25.32 15.276 39.747 19.417c22.869 6.5635 47.979 11.641 71.665 7.8718 0 0 47.613-3.1153 69.256-11.02 12.225-4.4651 32.52-19.942 32.52-19.942s-35.72-21.292-55.404-28.863c-17.837-6.8599-27.142-13.559-46.638-13.581-23.881-0.027-57.565 5.9924-78.022 16.729-13.51 7.09-33.13 29.39-33.13 29.39z"/>
      <path id="path3688" fill="#382007" d="m322.59 391.65s-2.1328 26.414 3.9661 35.165c2.6603 30.056 24.923 36.34 55.873 32.089 0 0 15.062-2.56 21.078-6.4439 7.5447-4.8706 16.055-11.594 16.862-19.869 0 0 3.731-16.521 2.4089-24.702-0.70718-4.3757-5.42-12.351-5.42-12.351s-30.592-12.753-46.973-12.888c-15.248-0.12502-47.795 8.9985-47.795 8.9985z"/>
      <path id="path3690" d="m212.66 474.05c25.712 8.7109 51.311 17.957 77.094 26.335 39.218 3.2068 78.474 7.0548 117.67 9.8617 27.142-5.5623 54.235-11.399 81.408-16.789 23.224 0.3652 43.281 14.802 61.419 27.886 18.609 14.635 36.068 31.459 49.951 50.498 1.1296 6.2935 2.2592 12.587 3.3888 18.88-24.789-22.322-50.407-44.419-81.061-58.35-17.311-8.2594-34.359-19.859-54.432-18.538-14.345 3.5876-27.78 10.814-42.09 14.943-14.592 5.1189-29.89 10.283-45.502 6.6793-27.163-3.5749-54.523-6.4913-81.365-11.975-14.555-3.732-29.357-6.8559-43.758-10.964-14.577-8.6138-29.154-17.228-43.732-25.841-2.0203-4.8824-4.0406-9.7648-6.0609-14.647 2.357 0.67343 4.7141 1.3469 7.0711 2.0203z" fill="#a47b62"/>
      <path id="path3696" fill="#a47b62" d="m-257.67 500.82c41.27 2.5177 123.74 8.5863 123.74 8.5863 36.496 2.5324 72.988-9.8143 107.58-21.718 11.747-4.0424 33.335-16.668 33.335-16.668s-29.8 28.284-34.85 29.8c-5.0508 1.5152-49.893 24.223-76.772 29.8-29.695 6.1607-88.893 3.5355-90.914 3.5355-2.0203 0-61.619-13.637-61.619-13.637l-19.698-20.708s12.798 0.62005 19.193 1.0102z"/>
      <path id="path3698" d="m157.22 409.93s-12.425 63.64-15.738 75.761c-3.3133 12.122-4.1416 100.01-4.1416 100.01l20.708 78.792 17.395 29.294 11.597-7.0711 10.768-28.284 9.1117-33.335 16.567-10.102 4.97-13.132s-10.768-38.386-12.425-42.426c-1.6567-4.0406 7.455-51.518 7.455-51.518l-15.738-55.558-25.678-52.528-19.88-10.102-4.97 20.203z" fill="#a47b62"/>
      <path id="path3701" fill="#908376" d="m225.39 300.81c4.9801-9.1624 30.591-16.215 46.957-18.29 22.715-2.8799 47.761-7.4385 69.314-2.3409 16.09 3.8056 32.212 13.817 45.003 24.529 4.7193 3.9524 16.419 16.04 13.237 16.305-33.436 2.7863-73.539 0.13307-110.02 3.9187-14.491 1.5038-31.635 10.538-43.279 6.1828-9.8528-3.6852-24.878-23.561-21.213-30.305z"/>
      <path id="path3703" fill="#908376" d="m-141.17 273.65c22.963 3.2494 48.906 3.1345 68.565 12.045 9.2568 4.1958 23.228 22.719 18.183 27.274-9.9222 8.9577-41.907 14.925-63.17 13.795-24.149-1.2831-50.129-2.0116-72.433-9.5984-10.943-3.7225-36.253-9.3085-28.599-27.327 12.725-29.956 50.168-19.572 77.453-16.188z"/>
      <path id="path3707" fill="#af8b76" d="m-85.714 3.7908c8.4039-0.073032 11.852 9.0456 12.542 16.023 1.3615 13.782 0.328 28.284-5.0001 41.026-6.3817 15.263-21.889 23.931-34.783 33.451-11.876 8.7683-29.406 8.9889-37.911 22.334-6.5636 10.299-7.528 24.996-19.291 31.29-6.1532 3.2922-13.759 9.3594-20.032 6.7805-5.2155-2.1442-4.3467-11.511-4.4805-17.316-0.2791-12.114 7.5399-22.125 12.381-32.663 6.4018-13.934 11.995-28.391 13.675-43.737 1.5145-13.838 3.8487-28.965 14.822-38.866 10.389-9.3749 23.033-17.178 36.89-19.505 10.339-1.736 20.784 1.2727 31.188 1.1822z"/>
      <path id="path3712" d="m-60 1120.9 64.286 27.143 34.286 28.571 15.714 45.714v32.857l-5.7143 34.286-72.857-38.571-31.429-35.714-25.714-37.143-10-34.286 31.428-22.9z" fill="#ab9384"/>
      <path id="path3714" d="m174.29 1208.1 44.286-48.572 65.714-51.428 40-24.286-4.2857 54.286s-4.2857 41.428-17.143 50c-12.857 8.5714-38.571 37.143-48.571 42.857-10 5.7143-45.714 8.5714-51.429 11.429-5.7142 2.8571-25.714-5.7143-25.714-5.7143l-2.8572-28.571z" fill="#ab9384"/>
      <path id="path3716" transform="matrix(1.5164 0 0 1.5164 -186.68 -223.36)" d="m386.89 426.57c0 9.2052-7.4623 16.668-16.668 16.668-9.2052 0-16.668-7.4623-16.668-16.668 0-9.2052 7.4623-16.668 16.668-16.668 9.2052 0 16.668 7.4623 16.668 16.668z"/>
      <path id="path3716-1" transform="matrix(1.4861 0 0 1.4861 -675.38 -202.85)" d="m386.89 426.57c0 9.2052-7.4623 16.668-16.668 16.668-9.2052 0-16.668-7.4623-16.668-16.668 0-9.2052 7.4623-16.668 16.668-16.668 9.2052 0 16.668 7.4623 16.668 16.668z"/>
      <path id="path3740" d="m875.42 467.48c11.729-2.9224 24.448-19.218 35.416-8.9128 4.4576 15.897 7.3028 32.275 3.5943 48.685-2.4083 17.778-3.0924 35.976-6.9184 53.448-8.7906 21.82-17.515 43.736-21.45 67.052-4.4912 25.032-15.531 48.648-32.684 67.504-4.6329 4.9368-23.296 23.294-11.759 23.168 12.46-8.872 23.215-20.235 32.95-31.924 14.202-24.024 32.108-46.013 44.224-71.16 14.444-34.255 30.433-67.968 40.23-103.95 5.2214-19.251 10.098-40.593-3.8449-57.326-11.954-5.22-22.793-15.127-36.533-13.867-10.872-3.5056-16.846 5.8458-24.65 11.776-6.3521 4.9684-12.824 9.8303-18.573 15.508z" fill="#a47b62"/>
      <path id="path3744" d="m-476.31 441.39c-4.1777 2.8119-8.3552 5.6237-12.533 8.4356 0.51838 6.9629 0.51376 14.061 1.3595 20.939 13.734 23.717 27.578 47.378 42.026 70.73 11.01 17.647 20.884 35.868 31.242 53.844 2.5534 10.88 5.1266 21.755 7.4058 32.688-2.3964 0.6837-5.8516 3.7975-6.1744-0.27693-3.2304-6.6986-5.19-14.027-10.27-19.809-8.4605-11.691-17.297-23.188-25.523-35-8.9587-18.141-17.531-36.463-26.732-54.491-5.8674-9.9495-12.269-19.671-17.803-29.763-3.7734-9.7665-7.9763-19.462-11.482-29.273v-14.333c2.9792-2.3658 5.5143-5.4743 9.71-5.8062 2.925-0.43558 5.9408-2.2692 8.8049-1.769l9.969 3.8847z" fill="#a47b62"/>
      <path id="path3747" fill="#ac8770" d="m347.95 678.13 53.447 78.834c14.883 21.953 30.456 44.814 52.111 60.128 10.94 7.7363 37.413 14.698 37.413 14.698 15.693 6.165 37.701 1.4146 49.439-10.689 11.98-12.355 20.918-38.03 9.3532-50.775 0 0-41.38-50.375-65.473-72.154-26.698-24.133-54.257-48.879-86.852-64.136 0 0-41.207-21.154-62.8-29.396-17.377-6.6328-53.447-16.034-53.447-16.034s27.764 36.41 41.421 54.783c8.5566 11.511 17.339 22.869 25.387 34.741z"/>
      <path id="path3749" fill="#ac8770" d="m-147.48 897.81c-7.1517 0.70371 61.597 6.0609 78.022 6.0609 16.426 0 85.596 11.441 126.19 10.102 29.17-0.96224 52.143-9.2295 81.185-12.122 54.5-5.4277 109.49-4.0406 164.26-4.0406h54.41s-20.319-6.0065-30.798-7.0711c-72.195-7.3341-217.64 5.0508-217.64 5.0508-20.626 0.47866-49.277 6.0609-61.597 6.0609-12.319 0-88.373-14.437-132.43-10.102l-61.597 6.0609z"/>
      <path id="path3751" fill="#908376" d="m462.65 290.71c6.6498 17.089 18.677 36.956 29.854 54.395 4.3031 6.7143 6.3468 15.912 12.573 20.356 11.77 8.402 33.84 18.856 41.416 18.183 7.5761-0.67343 5.548-15.189 4.0406-22.223-2.5332-11.822-8.1055-25.087-16.162-34.345-10.16-11.675-24.659-20.736-38.35-28.681-8.1406-4.724-17.547-8.6992-26.3-10.715-2.371-0.54597-7.8955 0.91175-7.0711 3.0304z"/>
      <path id="path3759" fill="#a47b62" d="m770.06 589.71c1.144 7.737 16.231 13.172 21.347 21.587 5.028 8.271 11.396 19.212 9.9682 27.911-1.6469 10.033-12.354 23.066-19.193 28.284-2.1953 1.6751-7.4364-3.8464-8.1591-7.46-1.9944-9.9719-4.2499-29.785-5.9831-29.916-1.6732-0.12626-1.8787 20.342-8.1384 28.397-3.3957 6.4004-8.0184 12.836-9.0342 19.873-1.1043 7.6502-2.4839 17.531 0 23.45 1.22 2.9074 9.0873 5.2255 11.112 3.0305 4.5521-4.9358 4.3065-18.086 9.0914-24.244 1.8727-2.41 6.5577-1.1589 9.9222-0.10161 4.3335 1.3618 9.1228 4.0627 13.311 3.1321 7.0062-1.5567 15.45-5.0414 20.415-10.437 7.8569-8.5378 15.224-19.298 19.05-30.36 4.9084-14.191 9.2726-30.398 8.0119-45.066-1.2249-14.252-8.7762-28.606-15.378-41.742-4.6893-9.3308-12.282-27.639-17.957-25.938-8.0551 2.4141-14.899 25.89-23.578 38.061-5.0579 7.0929-15.794 14.869-14.807 21.538z"/>
      <path id="path3762" fill="#ac8770" d="m753.57 786.69c-0.9147-16.922 16.519 36.284 33.335 38.386 14.644 1.8306 41.032-39.255 36.365-25.254l-16.162 48.487c-4.0476 12.143-10.851 25.44-22.223 31.315-5.0858 2.6271-17.173 0-17.173 0-18.955 0-9.5818-36.774-12.122-55.558-1.6719-12.364-2.0203-37.376-2.0203-37.376z"/>
      <path id="path3764" fill="#aca298" d="m760-93.352c35.189 33.889 67.577 71.347 96.442 110.51 16.891 22.916 32.677 49.544 38.266 76.932 7.0398 34.495 7.3216 86.366-7.3834 107.69-9.3306 13.531-41.58-21.417-58.24-37.402-23.152-22.214-38.031-50.575-56.313-76.453-21.765-30.808-34.283-66.621-50.201-100.54-13.205-28.135-33.449-56.364-38.285-85.027-2.4975-14.801 13.432-40.906 34.686-23.753 12.809 10.338 29.101 16.552 41.028 28.039z"/>
      <path id="path3768" fill="#aca298" d="m122.86-509.07c3.3336 14.168 38.458 35.44 61.429 42.857 30.159 9.7375 65.44 10.954 97.966 9.4583 32.096-1.4755 63.764-12.654 95.861-13.553 27.249-0.76298 81.014 9.9078 81.887 4.0943 0.91843-6.1182-48.702-33.628-76.404-40.099-70.282-16.416-146.71-31.309-216.45-32.759-17.039-0.35415-46.666 19.882-44.286 30z"/>
      <path id="path3772" d="m-401.43 569.51c0-7.1429-41.429-125.71-41.429-125.71l-12.857-161.43 20-142.86 10-91.429 20-38.571 7.1429 25.714 8.57 68.57 17.14 94.29 12.86 97.14-21.43 72.86-18.57 88.57 1.4286 84.286-2.8571 28.571z" fill="#aca298"/>
      <path id="path3774" fill="#b1a9a0" d="m-302.86 1012.4c28.313 24.315 42.327 69.081 72.375 96.965 79.525 73.797 159.72 151.43 229.05 231.61 6.911 7.9914 4.7432 23.748-12.735 13.654-22.414-12.945-50.191-16.343-70.766-33.41-33.08-27.44-72.652-49.041-102.21-78.815-29.561-29.773-52.511-65.331-78.483-97.439-22.919-28.332-32.544-67.122-42.014-102.43-2.7438-10.23-12.087-44.615 4.7835-30.127z"/>
      <path id="path3778" fill="#af8b76" d="m275.71-10.495c-7.8874 4.247-18.661 26.605-21.429 41.429-3.8995 20.89-5.0063 51.828 1.4286 65.714 2.6127 5.638 20.056-1.4848 25.714-7.1429 7.1991-7.1991 11.463-20.474 12.857-31.429 1.9391-15.236 1.1045-32.516-2.8571-47.143-2.2289-8.2299-11.221-23.848-15.714-21.429z"/>
      <path id="path3782" fill="#a47b62" d="m-32.571 701.93c0.83054-11.086 21.909-7.6457 32.857-5.7143 12.709 2.2422 24.851 9.7723 33.571 19.286l31.429 34.286c7.898 8.62-19.16-13.45-29.286-19.28-9.225-5.32-18.565-10.65-28.571-14.29 0 0-20.902-7.7609-31.429-11.429-2.844-0.99089-8.7964 0.14613-8.5714-2.8571z"/>
      <path id="path3784" d="m137.14 746.65 29.286-20 47.143-25 23.572-5 30 0.71428 7.8571 4.2857-8.5714 9.2857l-31.43-2.86-32.86 11.43s-28.572 15-31.429 15c-2.8572 0-35 15.714-35 15.714l1.4286-3.5714z" fill="#a47b62"/>
      <path id="path3786" fill="#ac8770" d="m397.5 380.47c16.708 16.917 55.479 30.843 81.823 48.56 9.9719 6.6674 20.373 12.728 31.475 17.303 3.4308 2.7362 7.4642 1.8663 11.049 0.19141 8.0882-2.5735 16.176-5.147 24.264-7.7206-5.1447-8.5589-9.1608-17.924-15.046-25.957l-39.121-32.376c-17.099-6.7431-33.911-16.684-52.869-16.244-7.479-0.33344-15.47-5.466-22.641-1.3038-6.4267 5.7096-23.467 12.96-18.935 17.548z"/>
      <path id="path3786-7" fill="#ac8770" d="m-93.569 383.88c16.708 16.917 55.479 30.843 81.823 48.56 9.9719 6.6674 20.373 12.728 31.475 17.303 3.4308 2.7362 7.4642 1.8663 11.049 0.19141 8.0882-2.5735 16.176-5.147 24.264-7.7206-5.1447-8.5589-9.1608-17.924-15.046-25.957l-39.121-32.376c-17.094-6.74-33.905-16.68-52.864-16.24-7.479-0.33344-15.47-5.466-22.641-1.3038-6.4267 5.7096-23.467 12.96-18.935 17.548z"/>
    </g>
  </g>
  <metadata>
    <rdf:RDF>
      <cc:Work>
        <dc:format>image/svg+xml</dc:format>
        <dc:type rdf:resource="http://purl.org/dc/dcmitype/StillImage"/>
        <cc:license rdf:resource="http://creativecommons.org/licenses/publicdomain/"/>
        <dc:publisher>
          <cc:Agent rdf:about="http://openclipart.org/">
            <dc:title>Openclipart</dc:title>
          </cc:Agent>
        </dc:publisher>
        <dc:title>Luiz Inacio Lula da Silva</dc:title>
        <dc:date>2011-02-24T06:52:58</dc:date>
        <dc:description>Luiz Inacio Lula da Silva, former Brazilian president.&#xD;\nEx-presidente brasileiro Luiz Inacio Lula da Silva.</dc:description>
        <dc:source>http://openclipart.org/detail/122311/luiz-inacio-lula-da-silva-by-laobc</dc:source>
        <dc:creator>
          <cc:Agent>
            <dc:title>laobc</dc:title>
          </cc:Agent>
        </dc:creator>
        <dc:subject>
          <rdf:Bag>
            <rdf:li>brasil</rdf:li>
            <rdf:li>brazil</rdf:li>
            <rdf:li>clip art</rdf:li>
            <rdf:li>clipart</rdf:li>
            <rdf:li>face</rdf:li>
            <rdf:li>former</rdf:li>
            <rdf:li>head</rdf:li>
            <rdf:li>lula</rdf:li>
            <rdf:li>man</rdf:li>
            <rdf:li>people</rdf:li>
            <rdf:li>president</rdf:li>
            <rdf:li>presidents</rdf:li>
          </rdf:Bag>
        </dc:subject>
      </cc:Work>
      <cc:License rdf:about="http://creativecommons.org/licenses/publicdomain/">
        <cc:permits rdf:resource="http://creativecommons.org/ns#Reproduction"/>
        <cc:permits rdf:resource="http://creativecommons.org/ns#Distribution"/>
        <cc:permits rdf:resource="http://creativecommons.org/ns#DerivativeWorks"/>
      </cc:License>
    </rdf:RDF>
  </metadata>
</svg>
